<svg xmlns="http://www.w3.org/2000/svg" width="40" height="40">
    <g data-name="Group 270">
        <path data-name="Rectangle 382" style="fill:none" d="M0 0h40v40H0z"/>
        <path data-name="Icon awesome-globe-americas" d="M11.326.563a11.326 11.326 0 1 0 11.325 11.325A11.326 11.326 0 0 0 11.326.563zm3.758 16.331-.517.515a1.091 1.091 0 0 0-.282.489c-.069.258-.125.52-.218.77l-.794 2.14a9.127 9.127 0 0 1-1.948.214v-1.25a3.419 3.419 0 0 0-1.033-2.341 1.461 1.461 0 0 1-.428-1.031v-1.464a1.457 1.457 0 0 0-.752-1.277c-.656-.363-1.59-.87-2.229-1.192a6.583 6.583 0 0 1-1.445-.993L5.4 11.44a5.242 5.242 0 0 1-.825-.947A799.248 799.248 0 0 1 3 8.157 9.183 9.183 0 0 1 7.71 3.5l1.1.548A.731.731 0 0 0 9.864 3.4v-.517a9.127 9.127 0 0 1 1.114-.111l1.292 1.292a.731.731 0 0 1 0 1.033l-.214.214-.472.472a.365.365 0 0 0 0 .517l.214.214a.365.365 0 0 1 0 .517l-.365.365a.366.366 0 0 1-.258.107h-.411a.365.365 0 0 0-.255.1l-.453.441a.366.366 0 0 0-.072.425L10.7 9.9a.365.365 0 0 1-.327.529h-.258a.365.365 0 0 1-.239-.09l-.424-.368a.731.731 0 0 0-.71-.142l-1.427.471a.546.546 0 0 0-.071 1.006l.506.253a3.093 3.093 0 0 0 1.384.327c.48 0 1.032 1.246 1.461 1.461h3.048a1.462 1.462 0 0 1 1.033.428l.625.625a1.393 1.393 0 0 1 .408.985 2.125 2.125 0 0 1-.627 1.506zm3.96-4.172a1.1 1.1 0 0 1-.646-.455l-.821-1.232a1.1 1.1 0 0 1 0-1.216l.895-1.342a1.1 1.1 0 0 1 .422-.372l.593-.3a8.848 8.848 0 0 1 .891 5.246z" transform="translate(9 8.437)" style="fill:#00002d"/>
    </g>
</svg>
