<svg xmlns="http://www.w3.org/2000/svg" width="40" height="40">
    <defs>
        <clipPath id="a">
            <path data-name="Rectangle 369" transform="translate(1118 -208)" style="fill:#fff" d="M0 0h40v40H0z"/>
        </clipPath>
    </defs>
    <g data-name="Mask Group 4" transform="translate(-1118 208)" style="clip-path:url(#a)">
        <g data-name="Group 181">
            <path data-name="Path 200" d="M17.012 0H5.677A5.7 5.7 0 0 0 0 5.695V17.03a5.7 5.7 0 0 0 5.677 5.677h11.335a5.707 5.707 0 0 0 5.695-5.695V5.695A5.707 5.707 0 0 0 17.012 0zm-4.523 14.507a2.432 2.432 0 0 1-2.055-1.007s-.487 1.874-.595 2.235A8.875 8.875 0 0 1 8.326 18.4a.111.111 0 0 1-.2-.054 9.364 9.364 0 0 1 .018-3.1l1.081-4.433a3.029 3.029 0 0 1-.27-1.28c0-1.207.721-2.108 1.622-2.108a1.111 1.111 0 0 1 1.137 1.225 16.994 16.994 0 0 1-.739 2.883 1.272 1.272 0 0 0 1.333 1.567c1.586 0 2.667-1.982 2.667-4.325 0-1.784-1.243-3.118-3.5-3.118a3.928 3.928 0 0 0-4.14 3.894 2.334 2.334 0 0 0 .559 1.6c.162.18.18.252.126.451-.036.144-.126.5-.18.649a.283.283 0 0 1-.414.2 3.124 3.124 0 0 1-1.713-3.116c0-2.307 2.018-5.082 6-5.082 3.208 0 5.316 2.253 5.316 4.667-.017 3.208-1.837 5.587-4.54 5.587z" style="fill:#0052d2" transform="translate(1126.647 -199.353)"/>
        </g>
    </g>
</svg>
