<svg xmlns="http://www.w3.org/2000/svg" width="40" height="40">
    <defs>
        <clipPath id="a">
            <path data-name="Rectangle 369" transform="translate(1118 -268)" style="fill:#fff;stroke:#707070" d="M0 0h40v40H0z"/>
        </clipPath>
    </defs>
    <g data-name="Mask Group 2" transform="translate(-1118 268)" style="clip-path:url(#a)">
        <g data-name="twitter (1)">
            <g data-name="Group 171">
                <path data-name="Path 195" d="M17 .012H5.69A5.7 5.7 0 0 0 0 5.707v11.335a5.7 5.7 0 0 0 5.69 5.677h11.326a5.7 5.7 0 0 0 5.69-5.695V5.707A5.732 5.732 0 0 0 17 .012zm-.02 8.506V8.9a8.142 8.142 0 0 1-8.265 8.146 8.285 8.285 0 0 1-4.448-1.28c.234.018.45.036.684.036a5.8 5.8 0 0 0 3.6-1.225 2.9 2.9 0 0 1-2.719-1.982 2.746 2.746 0 0 0 .54.054 2.68 2.68 0 0 0 .774-.108 2.879 2.879 0 0 1-2.284-2.816v-.036a2.784 2.784 0 0 0 1.3.36 2.827 2.827 0 0 1-.9-3.82 8.317 8.317 0 0 0 5.978 2.992 2.655 2.655 0 0 1-.072-.649 2.879 2.879 0 0 1 2.9-2.865 2.95 2.95 0 0 1 2.125.9 5.4 5.4 0 0 0 1.837-.7 2.933 2.933 0 0 1-1.278 1.586 5.75 5.75 0 0 0 1.675-.451 5.915 5.915 0 0 1-1.447 1.476z" transform="translate(1126.185 -259.607)" style="fill:#0052d2"/>
            </g>
        </g>
    </g>
</svg>
