<svg id="LOGO" xmlns="http://www.w3.org/2000/svg" width="192.673" height="43.999">
    <defs>
        <clipPath id="clip-path">
            <path id="path16" class="cls-1" d="M37.333-404h192.673v-44H37.333z" transform="translate(-37.333 447.995)"/>
        </clipPath>
        <style>
            .cls-1{fill:#81754b}.cls-3{fill:#192c59}
        </style>
    </defs>
    <g id="g12">
        <g id="g14" style="clip-path:url(#clip-path)">
            <g id="g20" transform="translate(35.415 22.816)">
                <path id="path22" class="cls-1" d="M-72.95-4.557c2.782 0 5.753 1.57 5.753 5.976a7.138 7.138 0 0 1-.439 2.856h-11.84c.291-5.37 2.843-8.832 6.526-8.832m5.7 9.436.036-.046a6.043 6.043 0 0 0 .692-3.414 6.143 6.143 0 0 0-6.428-6.543c-6.685 0-9.068 5.51-9.068 10.667 0 6.486 3.56 10.515 9.29 10.515 4.057 0 5.813-2.07 5.887-2.16l.067-.082-.345-.345-.084.088a7.735 7.735 0 0 1-5.485 1.932c-6.131 0-6.794-7.141-6.794-10.21v-.4z" transform="translate(82.018 5.124)"/>
            </g>
            <g id="g24" transform="translate(52.533 22.817)">
                <path id="path26" class="cls-1" d="M-146.791-48.146c0-3.915-2.212-5.985-6.394-5.985a7.876 7.876 0 0 0-6.681 4.179v-1.685c0-1.29-.671-2.124-1.712-2.124h-3.46v.567h2.6v19.269h-2.6v.567h7.883v-.567h-2.711v-14.793c.479-1.279 2.695-4.846 6.681-4.846 2.644 0 3.823 1.693 3.823 5.493v12.591c0 1.29.671 2.122 1.712 2.122h3.46v-.567h-2.6z" transform="translate(165.038 54.131)"/>
            </g>
            <g id="g28" transform="translate(74.482 22.816)">
                <path id="path30" class="cls-1" d="M-72.95-4.557c2.782 0 5.753 1.57 5.753 5.976a7.138 7.138 0 0 1-.439 2.856h-11.843c.291-5.37 2.845-8.832 6.528-8.832m5.7 9.436.036-.046a6.057 6.057 0 0 0 .69-3.414 6.142 6.142 0 0 0-6.43-6.543c-6.687 0-9.068 5.51-9.068 10.667 0 6.486 3.56 10.515 9.29 10.515 4.057 0 5.813-2.07 5.884-2.16l.069-.082-.347-.345-.082.088a7.745 7.745 0 0 1-5.485 1.932c-6.133 0-6.794-7.141-6.794-10.21v-.4z" transform="translate(82.018 5.124)"/>
            </g>
            <g id="g32" transform="translate(92.371 15.982)">
                <path id="path34" class="cls-1" d="M-150.643-141.343h-3.533v.567h2.415l.036 8.167a13.38 13.38 0 0 1-5.529 1.148c-5.9 0-9.282-4.724-9.282-12.961 0-8.2 3.679-13.924 8.949-13.924 4.883 0 7.684 2.163 7.684 5.939a6.88 6.88 0 0 1-.659 2.659l-.084.169h.583l.036-.052a5.2 5.2 0 0 0 .763-2.776c0-4.074-3.113-6.505-8.324-6.505a10.618 10.618 0 0 0-8.936 4.292 16.849 16.849 0 0 0-2.845 10.051c0 8.435 4.614 13.675 12.041 13.675 5.408 0 8.079-2.609 8.1-2.636l.033-.033v-6.177c0-.746-.165-1.6-1.453-1.6" transform="translate(169.369 158.913)"/>
            </g>
            <g id="g36" transform="translate(115.394 22.816)">
                <path id="path38" class="cls-1" d="M-72.95-4.557c2.78 0 5.753 1.57 5.753 5.976a7.1 7.1 0 0 1-.439 2.856h-11.84c.291-5.37 2.843-8.832 6.526-8.832m5.7 9.436.036-.046a6.057 6.057 0 0 0 .69-3.414 6.142 6.142 0 0 0-6.43-6.543c-6.685 0-9.068 5.51-9.068 10.667 0 6.486 3.56 10.515 9.29 10.515 4.06 0 5.813-2.07 5.887-2.16l.067-.082-.347-.345-.082.088a7.749 7.749 0 0 1-5.487 1.932c-6.131 0-6.792-7.141-6.792-10.21v-.4z" transform="translate(82.018 5.124)"/>
            </g>
            <g id="g40" transform="translate(132.512 22.817)">
                <path id="path42" class="cls-1" d="M-146.791-48.146c0-3.915-2.212-5.985-6.394-5.985a7.876 7.876 0 0 0-6.681 4.179v-1.685c0-1.29-.671-2.124-1.712-2.124h-3.46v.567h2.6v19.269h-2.6v.567h7.883v-.567h-2.711v-14.793c.477-1.279 2.695-4.846 6.681-4.846 2.642 0 3.821 1.693 3.821 5.493v12.591c0 1.29.673 2.122 1.714 2.122h3.46v-.567h-2.6z" transform="translate(165.038 54.131)"/>
            </g>
            <g id="g44" transform="translate(154.428 22.817)">
                <path id="path46" class="cls-1" d="M-115.009-58.05h.594l.033-.054a4.222 4.222 0 0 0 .539-2.143c0-3.19-2.333-5.019-6.395-5.019-6.685 0-9.068 5.51-9.068 10.665 0 6.487 3.56 10.517 9.29 10.517 4.058 0 5.813-2.072 5.885-2.159l.073-.09-.4-.334-.075.09c-.015.021-1.645 1.927-5.446 1.927-5.909 0-6.792-6.165-6.792-9.839 0-6.01 2.686-10.209 6.532-10.209 3.731 0 5.79 1.582 5.79 4.453a4.717 4.717 0 0 1-.47 2.026z" transform="translate(129.305 65.267)"/>
            </g>
            <g id="g48" transform="translate(171.751 22.816)">
                <path id="path50" class="cls-1" d="M-72.967-4.557c2.78 0 5.753 1.57 5.753 5.976a7.1 7.1 0 0 1-.441 2.856H-79.5c.291-5.37 2.843-8.832 6.528-8.832m5.744 18.118a7.734 7.734 0 0 1-5.485 1.932c-6.131 0-6.794-7.141-6.794-10.21v-.4h12.239l.033-.046a6.022 6.022 0 0 0 .692-3.414 6.142 6.142 0 0 0-6.43-6.543c-6.687 0-9.07 5.51-9.07 10.667 0 6.486 3.56 10.515 9.292 10.515 4.058 0 5.811-2.07 5.885-2.16l.067-.082-.345-.345z" transform="translate(82.037 5.124)"/>
            </g>
            <g id="g52">
                <path id="path54" class="cls-1" d="M-252.635-259.816c0 6.938-7 11.7-16 11.7-7.971 0-15.245-4.885-15.408-13.4h.711c.157 7.151 5.933 12.879 14.7 12.879 3.2 0 7.314-1.016 9.908-3.56a5.24 5.24 0 0 0 .13-6.537s-3.681-7.227-11.414-5.213a43.508 43.508 0 0 0-6.031 2.145s-2.987.916-2.569-1.654a1.493 1.493 0 0 0-1.252-1.555s-.343.173-.351-.556c0 0-.082-.621.385-.744-.115 0-1.367-.025-1.375-.991 0 0 .663-.851.345-1.563a1.532 1.532 0 0 0-1.415-.834c-.132.075-1.179-.213-.9-.957a2.687 2.687 0 0 1 .615-1.054 3.848 3.848 0 0 0 .728-3.74s-1.219-3.43-.924-5.719a12.235 12.235 0 0 1 .974-3.512c2.078-5.638 8.991-7.429 13.736-7.429 8.061 0 13.945 3.706 13.945 10.35v.1a1.287 1.287 0 0 0-.222-.05h-.025l-.073-.008a1.12 1.12 0 0 0-.238.042c-.008 0-.025 0-.031.008v-.092c0-5.759-5-9.817-13.356-9.817-5 0-10.883 2.347-10.883 8.819 0 12.233 26.291 10.18 26.291 22.944" transform="translate(284.039 292.113)"/>
            </g>
            <g id="g56" transform="translate(23.349 9.099)">
                <path id="path58" class="cls-3" d="M-27.252-42.585c-.665-.6-1.167-1.34-1.794-1.971a1.87 1.87 0 0 0-.449-.353 1.556 1.556 0 0 0-1.031-.073 5.051 5.051 0 0 1-.094-1.526 2.154 2.154 0 0 1 .42-1.292.167.167 0 0 1 .159-.079.388.388 0 0 0 .174.153c1.181.682 1.536 2.136 1.921 3.345a8.537 8.537 0 0 0 .324.872c.073.163.18.307.255.466a.923.923 0 0 1 .079.236c.01.048 0 .188.033.219" transform="translate(30.64 47.878)"/>
            </g>
            <g id="g60" transform="translate(24.273 9.052)">
                <path id="path62" class="cls-3" d="M-30.808-19c.063.1-.3.456-.357.523a4.272 4.272 0 0 0-.541.79c-.155.293-.259.621-.422.905a1.167 1.167 0 0 1-.2-.4 8.808 8.808 0 0 1-.167-.441c-.107-.307-.2-.621-.307-.926a4.673 4.673 0 0 0-1.8-2.763.057.057 0 0 1-.033-.023s.406-.033.445-.031a2.8 2.8 0 0 1 .51.067 4.158 4.158 0 0 1 1.714.98A5.893 5.893 0 0 1-30.808-19" transform="translate(34.637 21.366)"/>
            </g>
            <g id="g64" transform="translate(20.277 12.227)">
                <path id="path66" class="cls-3" d="M-64.087-30.762c-.1.132-.408.146-.552.2a6.616 6.616 0 0 0-2.224 1.852 3.952 3.952 0 0 1-.548.523 1.263 1.263 0 0 1-1.166.13 7.3 7.3 0 0 1-1.4-.587 9.546 9.546 0 0 1-1.162-.728 3.325 3.325 0 0 1-.692-.845 1 1 0 0 1-.184-.867c.109-.385.257-.757.4-1.131a3.078 3.078 0 0 1 .51-.955 4.132 4.132 0 0 1 1.47-1.083 2.114 2.114 0 0 1 1.714-.226 2.889 2.889 0 0 1 .746.748 13.634 13.634 0 0 0 1.2 1.35 2.827 2.827 0 0 1 .688.707 1.49 1.49 0 0 0 .491.592c-.088-.054-.416.013-.525.015a11.344 11.344 0 0 1-3.19-.2 4.015 4.015 0 0 0-2.209-.383 1.584 1.584 0 0 0-.516.261c-.05.04-.142.1-.159.165-.019.084.038.153.125.123a.325.325 0 0 0 .113-.079 1.063 1.063 0 0 1 .5-.243 4.019 4.019 0 0 1 1.844.355 12.022 12.022 0 0 0 4.442.2c.052 0 .349-.065.289.1" transform="translate(72.054 34.586)"/>
            </g>
            <g id="g68" transform="translate(25.526 16.291)">
                <path id="path70" class="cls-3" d="M-39.885-21.953a4.132 4.132 0 0 1-.378 2.222 4.149 4.149 0 0 1-1.2 1.739 3.6 3.6 0 0 1-.863.558 1.089 1.089 0 0 1-.518.111 2.277 2.277 0 0 1-.305-.107 1.4 1.4 0 0 0-.309-.023c-.456-.029-.782-.6-.937-.966a5.9 5.9 0 0 1-.328-1.367 5.653 5.653 0 0 1-.01-2.233 3.306 3.306 0 0 1 .136-.422 3.918 3.918 0 0 1 2.028-2.007 1.357 1.357 0 0 1 .911-.171c.165.067.073.5.067.638a18.98 18.98 0 0 1-.1 1.279c-.163 1.311-.7 2.534-.974 3.821a8.115 8.115 0 0 1-.171.865c-.031.1-.213.479.05.372.09-.038.136-.2.163-.28.073-.211.09-.433.146-.648.222-.857.472-1.7.767-2.532a6.729 6.729 0 0 0 .337-1.821 10.9 10.9 0 0 0 .033-1.432c0-.05-.061-.4.077-.314.071.044.119.188.167.255.184.245.426.424.594.688a5.562 5.562 0 0 1 .619 1.773" transform="translate(44.843 24.682)"/>
            </g>
            <g id="g72" transform="translate(29.527 13.991)">
                <path id="path74" class="cls-3" d="M-55.125-35.6a2.219 2.219 0 0 1-.148.546 1.8 1.8 0 0 1-.615.711 4.168 4.168 0 0 1-1.827.709 4.217 4.217 0 0 1-.629.05 2.739 2.739 0 0 1-.376-.025 2.261 2.261 0 0 1-1.98-1.52 4.9 4.9 0 0 0-.077-.552 3.633 3.633 0 0 0-.351-.991 12.4 12.4 0 0 1-.849-1.248 4.194 4.194 0 0 1 .439.073l1.825.6c.477.155.947.337 1.438.449.7.163 1.411.247 2.107.445.165.048.2-.176.107-.176-.008 0-.107-.05-.278-.107-.652-.217-1.336-.32-2-.5a39.738 39.738 0 0 1-1.037-.295 40.624 40.624 0 0 0-.888-.255c-.251-.071-.5-.18-.757-.261.222-.017.466-.042.744-.075a6.783 6.783 0 0 0 3.4-1.34 3.454 3.454 0 0 0 .638-.665 3.125 3.125 0 0 1 .3.272 5.091 5.091 0 0 1 1.07 1.656 2.981 2.981 0 0 1-.14 1.8c-.054.226-.077.464-.117.7" transform="translate(61.978 40.027)"/>
            </g>
            <g id="g76" transform="translate(30.77 10.51)">
                <path id="path78" class="cls-3" d="M-.068-10.433c0-.008-.008-.017-.008-.025a7.5 7.5 0 0 1 2.13-.968 4.922 4.922 0 0 1 1.447-.3c.261 0 .525-.013.786.006a1.63 1.63 0 0 1 .4.063.526.526 0 0 1 .215.142 2.973 2.973 0 0 1-.332.125 6.7 6.7 0 0 0-1.963 1.3C1.96-9.5 1.346-8.873.668-8.313c0 0-.219.163-.219.155C.44-8.3.432-8.436.415-8.551a5.269 5.269 0 0 0-.466-1.833c-.008-.006-.008-.023-.017-.048" transform="translate(.076 11.73)"/>
            </g>
            <g id="g80" transform="translate(30.406 10.835)">
                <path id="path82" class="cls-3" d="M-44.614 0a.121.121 0 0 1 .008.048c-.008.257-.052.521-.052.778a4.4 4.4 0 0 1-1.436 2.744 6.131 6.131 0 0 1-3.081 1.271 3.5 3.5 0 0 1-.985.1c.082.013.468-.466.533-.541a1.651 1.651 0 0 0 .232-.364 4.624 4.624 0 0 1 .138-.447c.1-.171.364-.259.514-.378a14.3 14.3 0 0 0 1.091-.98 17.71 17.71 0 0 1 1.445-1.3 5.063 5.063 0 0 1 .8-.525 3.58 3.58 0 0 0 .792-.4" transform="translate(50.16)"/>
            </g>
            <g id="g84" transform="translate(26.999 10.647)">
                <path id="path86" class="cls-3" d="M-32.257-29.146a1.18 1.18 0 0 1-.337.851c-.008.008-.017.025-.025.033a1.628 1.628 0 0 1-.8.583c-.259.038-.113-.119-.027-.278a2.043 2.043 0 0 0 .217-.506 1 1 0 0 0-.09-.83.362.362 0 0 0-.562-.01c-.171.184-.132.441-.263.633.038-.054-.416.01-.452.025-.013-.261.125-.581-.052-.822a.375.375 0 0 0-.562 0 1 1 0 0 0-.341.746c0 .123.159.782.054.817-.341.119-.711-1.024-.746-1.208a1.44 1.44 0 0 1 .144-.834 4.7 4.7 0 0 1 .878-1.522c.334-.414 1.229-1.716 1.913-1.179a.784.784 0 0 1 .207.32 13.621 13.621 0 0 1 .663 1.672 5.358 5.358 0 0 1 .186 1.447v.056" transform="translate(36.267 32.77)"/>
            </g>
            <g id="g88" transform="translate(28.359 14.991)">
                <path id="path90" class="cls-3" d="M-7.71-4.028a.525.525 0 0 1-.059.151c-.04.065-.1.061-.161.1-.086.061-.071.14-.13.22a.3.3 0 0 1-.32.109c-.153-.048-.125-.188-.159-.318-.015-.048-.038-.094-.056-.14-.061-.155-.161-.426.073-.477a1.036 1.036 0 0 0 .263-.069c.079-.044.157-.132.232-.027.086.084.272.174.316.282a.331.331 0 0 1 0 .169" transform="translate(8.668 4.529)"/>
            </g>
            <g id="g92" transform="translate(187.428 21.032)">
                <path id="path94" class="cls-1" d="M-16.5-19.793h.487c.1 0 .207 0 .311-.01a.872.872 0 0 0 .278-.063.508.508 0 0 0 .2-.155.48.48 0 0 0 .077-.295.436.436 0 0 0-.061-.243.445.445 0 0 0-.155-.151.7.7 0 0 0-.22-.084 1.382 1.382 0 0 0-.243-.023h-.674zm0 1.664h-.38v-3.025h1.164a1.023 1.023 0 0 1 .734.215.843.843 0 0 1 .217.623 1 1 0 0 1-.059.36.737.737 0 0 1-.165.251.863.863 0 0 1-.245.163 1.32 1.32 0 0 1-.293.088l.9 1.325h-.431l-.9-1.325h-.542zm-1.67-1.5a2.189 2.189 0 0 0 .176.874 2.235 2.235 0 0 0 .481.711 2.235 2.235 0 0 0 .711.481 2.19 2.19 0 0 0 .874.176 2.175 2.175 0 0 0 .874-.176 2.222 2.222 0 0 0 .713-.481 2.234 2.234 0 0 0 .481-.711 2.191 2.191 0 0 0 .178-.874 2.2 2.2 0 0 0-.178-.876 2.29 2.29 0 0 0-.481-.713 2.285 2.285 0 0 0-.713-.479 2.175 2.175 0 0 0-.874-.176 2.19 2.19 0 0 0-.874.176 2.3 2.3 0 0 0-.711.479 2.291 2.291 0 0 0-.481.713 2.2 2.2 0 0 0-.176.876m-.38 0a2.529 2.529 0 0 1 .207-1.02 2.67 2.67 0 0 1 .567-.832 2.727 2.727 0 0 1 .83-.564 2.533 2.533 0 0 1 1.018-.207 2.535 2.535 0 0 1 1.02.207 2.71 2.71 0 0 1 .832.564 2.742 2.742 0 0 1 .564.832 2.531 2.531 0 0 1 .207 1.02 2.528 2.528 0 0 1-.207 1.018 2.717 2.717 0 0 1-.564.832 2.64 2.64 0 0 1-.832.564 2.537 2.537 0 0 1-1.02.209 2.535 2.535 0 0 1-1.018-.209 2.655 2.655 0 0 1-.83-.564 2.647 2.647 0 0 1-.567-.832 2.526 2.526 0 0 1-.207-1.018" transform="translate(18.548 22.253)"/>
            </g>
        </g>
    </g>
</svg>
