<svg id="Component_97_1" data-name="Component 97 – 1" xmlns="http://www.w3.org/2000/svg" width="23.227" height="23.226">
    <defs>
        <style>
            .cls-1{fill:#00002d}
        </style>
    </defs>
    <path id="Path_250" data-name="Path 250" class="cls-1" d="M25.86 10a1.056 1.056 0 0 0-1.06 1.056v14.432l-4.049-3.611a1.058 1.058 0 0 0-1.4 1.584l5.569 4.962a1.056 1.056 0 0 0 .94.581h.116a1.056 1.056 0 0 0 .681-.253l6.218-5.279a1.056 1.056 0 1 0-1.367-1.584l-4.593 3.88V11.056A1.056 1.056 0 0 0 25.86 10z" transform="translate(-14.247 -10)"/>
    <path id="Path_251" data-name="Path 251" class="cls-1" d="M32.171 44a1.056 1.056 0 0 0-1.056 1.056v2.112h-19v-2.112a1.056 1.056 0 0 0-2.112 0v3.167a1.056 1.056 0 0 0 1.056 1.056h21.112a1.056 1.056 0 0 0 1.056-1.056v-3.167A1.056 1.056 0 0 0 32.171 44z" transform="translate(-10 -26.053)"/>
</svg>
