<svg xmlns="http://www.w3.org/2000/svg" width="40" height="40">
    <defs>
        <clipPath id="clip-path">
            <path id="Path_212" data-name="Path 212" class="cls-1" d="M19.82 0H2.831A2.834 2.834 0 0 0 0 2.831V19.82a2.834 2.834 0 0 0 2.831 2.831H19.82a2.834 2.834 0 0 0 2.831-2.831V2.831A2.834 2.834 0 0 0 19.82 0z"/>
        </clipPath>
        <style>
            .cls-1{fill:#0052d2}
        </style>
    </defs>
    <g id="Group_310" data-name="Group 310" transform="translate(7820 19936)">
        <path id="Rectangle_385" data-name="Rectangle 385" transform="translate(-7820 -19936)" style="fill:none" d="M0 0h40v40H0z"/>
        <g id="Group_309" data-name="Group 309" transform="translate(-7811.371 -19927.371)">
            <g id="facebook_1_" data-name="facebook (1)">
                <g id="Mask_Group_6" data-name="Mask Group 6" style="clip-path:url(#clip-path)">
                    <path id="facebook" class="cls-1" d="M19.6 0H3.052A3.052 3.052 0 0 0 0 3.052V19.6a3.052 3.052 0 0 0 3.052 3.052h8.161l.014-8.094h-2.1a.5.5 0 0 1-.5-.494l-.01-2.609a.5.5 0 0 1 .5-.5h2.1V8.434c0-2.926 1.787-4.519 4.4-4.519h2.142a.5.5 0 0 1 .5.5v2.2a.5.5 0 0 1-.5.5h-1.321c-1.419 0-1.694.674-1.694 1.664v2.183h3.119a.5.5 0 0 1 .493.555l-.309 2.609a.5.5 0 0 1-.493.438h-2.8l-.014 8.094h4.86a3.052 3.052 0 0 0 3.051-3.058V3.052A3.052 3.052 0 0 0 19.6 0z"/>
                </g>
            </g>
        </g>
    </g>
</svg>
